PathFileType	4	(X/Y/Z)	../Python\walking\Walking21\task.trc
DataRate	CameraRate	NumFrames	NumMarkers	Units	OrigDataRate	OrigDataStartFrame	OrigNumFrames
200.000000	200.000000	7	30	mm	200.000000	237	474
Frame#	Time	CLAV			STRN			RASI			LASI			PE01			RTH1			RTH2			RTH3			RTB1			RTB3			RHEE			RD5M			RTOE			LTH2			LTH3			LTB1			LTB2			LTB3			LHEE			LTOE			LD5M			RBAK			LTH1			RTB2			C7			PE03			LPSI			PE02			RPSI			T10			
		X1	Y1	Z1	X2	Y2	Z2	X3	Y3	Z3	X4	Y4	Z4	X5	Y5	Z5	X6	Y6	Z6	X7	Y7	Z7	X8	Y8	Z8	X9	Y9	Z9	X10	Y10	Z10	X11	Y11	Z11	X12	Y12	Z12	X13	Y13	Z13	X14	Y14	Z14	X15	Y15	Z15	X16	Y16	Z16	X17	Y17	Z17	X18	Y18	Z18	X19	Y19	Z19	X20	Y20	Z20	X21	Y21	Z21	X22	Y22	Z22	X23	Y23	Z23	X24	Y24	Z24	X25	Y25	Z25	X26	Y26	Z26	X27	Y27	Z27	X28	Y28	Z28	X29	Y29	Z29	X30	Y30	Z30	

238	1.185	235.0848236083986	1233.246826171875	192.6350708007814	301.601531982422	1051.620727539063	187.2506103515626	274.7064208984376	865.6943969726567	292.8742980957032	251.263885498047	836.5588378906255	67.75076293945315	68.34088134765628	926.4901733398442	204.6636962890626	299.3008728027345	581.0711669921877	330.4210205078126	338.5997619628907	516.413024902344	304.9351196289064	346.9174804687501	577.487731933594	312.6915588378907	385.6159362792971	296.9751586914064	278.3101501464845	378.8679809570314	219.3865356445314	271.6165771484376	297.8647766113282	28.78993606567384	215.2567901611329	451.4782409667971	16.27224731445313	271.5994567871095	485.5838623046877	32.21416091918947	215.6986389160157	106.6669158935547	526.1428222656252	62.4633712768555	182.3197326660157	547.5152587890627	44.89881515502931	-32.26742553710939	329.1958007812501	83.05825805664065	-89.81982421875003	278.367156982422	102.3702850341797	-41.80823898315431	268.9223937988282	93.516471862793	-221.2773437500001	185.2637329101563	175.3190155029297	-136.1951293945313	33.31309890747072	180.5299682617188	-171.432113647461	39.76368713378908	138.4054260253907	54.97972488403323	1219.5576171875	280.5970764160157	140.0938415527344	575.893005371094	44.60913085937501	349.0081176757814	252.2573242187501	294.490692138672	107.0862274169922	1324.588745117188	192.6690826416017	51.80138015747073	863.0363769531255	187.657211303711	61.33350372314456	887.2018432617192	165.6064758300782	58.40714263916018	869.6143188476567	237.5405273437501	70.0568771362305	893.8446655273442	253.0582733154298	81.52097320556643	1027.359497070313	185.4933319091797	
239	1.19	242.2496185302736	1234.489135742188	192.3007812500001	308.8281555175782	1052.82177734375	186.8820495605469	281.6380004882814	866.7329101562505	292.9467773437501	258.2698669433595	837.1303710937505	68.00462341308597	75.15316009521487	927.785522460938	204.2678375244142	303.6512451171876	581.321960449219	330.6876525878907	342.4266967773439	516.3331298828127	305.3511047363282	351.3403930664064	577.2781372070315	313.2638244628907	387.6017150878909	296.5149230957032	278.7439880371095	380.1654052734376	218.9866638183595	271.961151123047	297.8502197265626	28.75669860839845	215.1784515380861	451.4680480957034	16.38512229919434	271.6693725585939	485.6893615722659	32.2349090576172	215.6045684814454	117.7729721069337	525.184265136719	61.48025894165042	193.0492095947267	547.6346435546877	43.96152877807619	-19.29138565063477	330.1644897460939	81.75572204589847	-77.59275817871097	280.2189331054689	101.3389053344727	-29.78480148315431	270.196258544922	92.43878173828128	-210.1918182373048	190.2312927246094	174.9938201904297	-129.3276062011719	35.20820999145509	179.2398681640626	-163.6259155273438	43.56920623779298	137.3477325439454	62.42609024047854	1220.717041015625	280.6637573242189	150.4228057861329	575.4927368164065	43.92668533325197	350.5375061035157	252.1700286865236	294.7261962890626	114.2459182739258	1325.717651367188	192.5095214843751	58.82960128784183	864.148315429688	187.5345611572266	68.39141082763675	888.269653320313	165.4351654052735	65.34247589111331	870.967651367188	237.4037475585939	77.10301208496097	895.4289550781255	253.0415802001954	88.7890319824219	1028.518432617188	185.435531616211	
240	1.195	249.3763885498048	1235.75830078125	191.9208679199219	315.9898376464845	1054.036743164063	186.4533081054688	288.4959106445314	867.7406616210942	293.027801513672	265.2279357910157	837.7651367187505	68.24636840820315	81.92456054687503	929.1139526367192	203.8959350585939	307.7440490722657	581.5430297851565	330.9465332031251	345.9673767089845	516.2031860351565	305.8003540039064	355.5091247558595	577.0034179687502	313.8652648925782	389.4088134765627	296.0624084472657	279.231903076172	381.3077697753907	218.5878753662111	272.3614196777345	297.8135681152345	28.7152557373047	215.0994415283204	451.4421081542971	16.47819137573243	271.7107238769532	485.7471313476565	32.28191375732423	215.5148773193361	128.9212799072266	524.3394165039065	60.51240539550784	203.7768859863282	547.887878417969	43.03770065307619	-5.992114543914797	331.065643310547	80.36641693115237	-65.00028228759768	281.9924926757814	100.2287902832032	-17.37767028808594	271.4424133300782	91.41278076171878	-198.8084259033204	194.8460998535157	174.6920623779297	-121.1987533569337	37.31737136840822	177.6074218750001	-154.7896423339844	47.50828170776369	136.0032958984376	69.86677551269534	1221.933227539063	280.7527465820314	160.7725219726563	575.194763183594	43.24064254760744	351.8838500976564	252.077362060547	294.9748535156251	121.3800735473633	1326.886474609375	192.3406372070314	65.78933715820315	865.3140258789067	187.4105529785157	75.38606262207034	889.3857421875005	165.2814636230469	72.2040939331055	872.3510131835942	237.268524169922	84.08211517333987	897.0285034179692	253.0272674560548	96.00981903076178	1029.715942382813	185.4099578857422	
241	1.2	256.4640197753907	1237.049438476563	191.4960174560547	323.0855102539064	1055.261962890625	185.9656982421876	295.2820129394532	868.7161254882817	293.1174926757814	272.1387634277345	838.4628906250005	68.473747253418	88.65692901611331	930.470336914063	203.5497589111329	311.6092224121095	581.7485351562502	331.1965942382814	349.2568664550782	516.0419921875002	306.2761230468751	359.4496154785157	576.6839599609377	314.485809326172	391.0647888183596	295.6228332519532	279.7609252929689	382.3212280273439	218.1961975097657	272.8057556152345	297.7612609863282	28.67414855957033	215.0230102539064	451.4065856933596	16.54382896423341	271.7327270507814	485.7691040039065	32.3395118713379	215.4344177246095	140.0977478027344	523.6262817382815	59.57681655883792	214.4827880859376	548.292907714844	42.12019348144533	7.583579540252689	331.9346923828126	78.92048645019534	-52.08349609375003	283.7084045410157	99.0646591186524	-4.621511459350588	272.6744079589845	90.44452667236331	-187.1473693847657	199.0718688964845	174.4302215576172	-111.8043975830079	39.60325241088869	175.6250000000001	-144.9344024658204	51.52334976196292	134.3759765625001	77.29849243164065	1223.201293945313	280.8620910644532	171.1277465820313	575.0134887695315	42.55921173095705	353.0779113769532	251.9842224121095	295.2345275878907	128.4875488281251	1328.090454101563	192.1616821289064	72.68123626708987	866.5292968750005	187.2853698730469	82.31758880615237	890.546508789063	165.1458435058594	78.9936218261719	873.7588500976567	237.1352844238282	90.99499511718753	898.6362304687505	253.0150146484376	103.1820526123047	1030.94775390625	185.4161376953126	
242	1.205	263.5115966796876	1238.35791015625	191.0272369384766	330.1147766113282	1056.493774414063	185.4211120605469	301.9986267089845	869.6584472656255	293.2161254882814	279.0034179687501	839.2233276367192	68.68508148193362	95.35254669189456	931.8494262695317	203.2308959960939	315.2792053222657	581.9510498046877	331.4361267089845	352.3334045410157	515.8670654296877	306.769256591797	363.1903686523439	576.3394775390627	315.1136169433595	392.5964355468752	295.2003784179689	280.3167724609376	383.2315063476564	217.8170623779298	273.2806091308595	297.6990356445314	28.64009666442873	214.9515075683595	451.3664550781252	16.57891082763673	271.7434387207032	485.7659606933596	32.39632034301759	215.3669281005861	151.2931823730469	523.0596313476565	58.68741989135745	225.1538391113282	548.865417480469	41.20251083374025	21.38957595825196	332.8073120117189	77.45451354980472	-38.88203811645509	285.384735107422	97.87488555908209	8.448489189147953	273.904754638672	89.53654479980472	-175.2226104736329	202.876922607422	174.2175903320313	-101.1722946166993	42.02278518676759	173.3021697998047	-134.0862884521485	55.55405426025393	132.4785614013672	84.7180099487305	1224.51611328125	280.9896545410157	181.4776916503907	574.9611816406252	41.8897171020508	354.1502380371095	251.8944854736329	295.5019531250001	135.5673370361329	1329.325073242188	191.9719238281251	79.50671386718753	867.7895507812505	187.1590118408204	89.18679046630862	891.748168945313	165.0284576416016	85.7133712768555	875.1855468750005	237.0042114257814	97.84313964843756	900.2453613281255	253.0045013427736	110.3049468994141	1032.209228515625	185.4532775878907	
243	1.21	270.5185546875001	1239.67919921875	190.5157775878907	337.0776977539064	1057.729248046875	184.8220214843751	308.648651123047	870.5676269531255	293.3242492675782	285.8233947753907	840.0459594726567	68.87931060791018	102.0140075683594	933.2458496093755	202.9406127929689	318.7879028320314	582.1612548828127	331.6626892089845	355.237030029297	515.694274902344	307.2686767578126	366.7618103027345	575.9880371093752	315.7353820800782	394.0291442871096	294.7984924316407	280.884002685547	384.0631408691409	217.4551086425782	273.7711791992189	297.6319580078126	28.61800193786623	214.886444091797	451.3252258300784	16.58394813537598	271.7496643066407	485.7469787597659	32.4447708129883	215.3147735595704	162.5032196044922	522.6504516601565	57.85466384887698	235.7843322753907	549.6175537109377	40.28037261962892	35.38230895996095	333.715789794922	76.00898742675784	-25.432674407959	287.0345458984376	96.68939971923834	21.79777336120606	275.1432189941407	88.68777465820315	-163.0428466796876	206.2345428466798	174.0558624267579	-89.35762786865237	44.5295867919922	170.6645050048829	-122.2845611572266	59.53929138183597	130.3321075439454	92.12220001220706	1225.87255859375	281.1330871582032	191.8163757324219	575.0476074218752	41.23841476440431	355.1302185058595	251.8109588623048	295.7727355957032	142.6185760498047	1330.585571289063	191.7706146240235	86.26789855957034	869.0900878906255	187.0313110351563	95.99515533447268	892.9865722656255	164.9292144775391	92.36624908447268	876.6253051757817	236.8753204345704	104.6286087036133	901.8493041992192	252.9954986572267	117.3781738281251	1033.49609375	185.5203094482422	
244	1.215	277.4844055175782	1241.008911132813	189.9631500244141	343.9748840332032	1058.96533203125	184.1714172363282	315.2351989746095	871.4443969726567	293.4423828125001	292.6006164550782	840.9301757812505	69.05603027343753	108.6441726684571	934.6544799804692	202.6799621582032	322.1698608398439	582.3875732421877	331.873260498047	358.007537841797	515.5369262695315	307.7622985839845	370.1951293945314	575.645446777344	316.336883544922	395.3861083984377	294.4195861816407	281.4467773437501	384.838806152344	217.1138610839845	274.2619018554689	297.5642089843751	28.61105155944826	214.8286132812501	451.285339355469	16.56222343444825	271.7565002441407	485.7199401855471	32.480525970459	215.2789916992189	173.7279510498047	522.4058837890627	57.08539962768558	246.3759002685548	550.557067871094	39.35276794433595	49.52212905883792	334.685760498047	74.62475585937503	-11.76844310760498	288.6639404296876	95.53706359863284	35.39332199096681	276.3955993652345	87.89376068115237	-150.612777709961	209.123016357422	173.9393768310547	-76.43697357177737	47.07604598999025	167.7508697509766	-109.5794677734376	63.41921997070315	127.9646835327149	99.50807189941412	1227.265258789063	281.2898864746095	202.1426239013673	575.2795410156252	40.6103858947754	356.0451965332032	251.7355804443361	296.0412902832032	149.6405944824219	1331.8671875	191.5570373535157	92.96758270263675	870.426147460938	186.9019317626954	102.7447586059571	894.2576293945317	164.8477630615235	98.9556503295899	878.0725097656255	236.7483978271486	111.3539962768555	903.441772460938	252.9877777099611	124.4018249511719	1034.8037109375	185.6159667968751	
